<?xml version="1.0" standalone="no"?>
<!DOCTYPE svg PUBLIC "-//W3C//DTD SVG 20010904//EN"
 "http://www.w3.org/TR/2001/REC-SVG-20010904/DTD/svg10.dtd">
<svg version="1.0" xmlns="http://www.w3.org/2000/svg"
 width="200.000000pt" height="200.000000pt" viewBox="0 0 200.000000 200.000000"
 preserveAspectRatio="xMidYMid meet">
<metadata>
Created by potrace 1.14, written by Peter Selinger 2001-2017
</metadata>
<g transform="translate(0.000000,200.000000) scale(0.100000,-0.100000)"
fill="#000000" stroke="none">
<path d="M898 1765 l-157 -105 -3 -111 -3 -112 -75 -47 -75 -47 -3 -93 c-3
-90 3 -109 31 -110 4 0 7 39 7 88 l1 87 79 48 79 48 3 111 3 110 138 95 137
94 0 -145 0 -144 40 -32 c36 -29 40 -36 40 -77 0 -37 3 -44 16 -39 9 3 18 6
20 6 2 0 4 24 4 54 0 51 -2 56 -40 86 l-40 32 0 154 c0 153 0 154 -23 154 -12
0 -93 -47 -179 -105z"/>
<path d="M980 1645 c0 -18 5 -25 20 -25 15 0 20 7 20 25 0 18 -5 25 -20 25
-15 0 -20 -7 -20 -25z"/>
<path d="M980 1565 c0 -18 5 -25 20 -25 15 0 20 7 20 25 0 18 -5 25 -20 25
-15 0 -20 -7 -20 -25z"/>
<path d="M980 1485 c0 -18 5 -25 20 -25 15 0 20 7 20 25 0 18 -5 25 -20 25
-15 0 -20 -7 -20 -25z"/>
<path d="M980 1405 c0 -18 5 -25 20 -25 15 0 20 7 20 25 0 18 -5 25 -20 25
-15 0 -20 -7 -20 -25z"/>
<path d="M1060 1405 c0 -18 5 -25 20 -25 15 0 20 7 20 25 0 18 -5 25 -20 25
-15 0 -20 -7 -20 -25z"/>
<path d="M980 1325 c0 -18 5 -25 20 -25 15 0 20 7 20 25 0 18 -5 25 -20 25
-15 0 -20 -7 -20 -25z"/>
<path d="M1060 1325 c0 -18 5 -25 20 -25 15 0 20 7 20 25 0 18 -5 25 -20 25
-15 0 -20 -7 -20 -25z"/>
<path d="M1140 1310 l0 -40 -40 0 -40 0 0 -280 0 -280 -220 0 c-207 0 -220 1
-220 18 0 11 11 24 24 30 69 31 72 108 11 260 -28 69 -42 92 -54 90 -19 -4
-77 -135 -93 -211 -14 -66 0 -109 43 -134 16 -10 29 -25 29 -35 0 -16 -10 -18
-80 -18 -79 0 -80 0 -80 -25 l0 -25 580 0 580 0 0 25 c0 14 -4 25 -9 25 -5 0
-11 13 -14 30 -4 19 -17 34 -36 44 -16 9 -32 24 -35 34 -8 23 -57 52 -88 52
-12 -1 -33 -6 -44 -13 -30 -17 -94 -103 -94 -127 0 -18 -7 -20 -80 -20 l-80 0
0 260 0 260 140 0 140 0 0 -160 c0 -153 1 -160 20 -160 19 0 20 7 20 180 l0
180 -40 0 -40 0 0 40 0 40 -100 0 -100 0 0 -40z m160 -20 c0 -18 -7 -20 -60
-20 -53 0 -60 2 -60 20 0 18 7 20 60 20 53 0 60 -2 60 -20z m-664 -354 c23
-71 26 -89 16 -110 -16 -37 -32 -32 -32 9 0 28 -4 35 -20 35 -16 0 -20 -7 -20
-35 0 -42 -16 -46 -31 -8 -8 23 -5 44 17 110 14 46 30 83 35 83 4 0 20 -38 35
-84z m786 -117 c11 -6 26 -26 34 -46 10 -22 20 -33 29 -29 7 2 19 -2 25 -9 18
-22 -3 -26 -110 -23 -60 2 -95 7 -97 15 -2 6 5 14 16 18 12 3 21 15 21 25 0
10 12 28 26 39 31 24 29 24 56 10z"/>
<path d="M980 1245 c0 -18 5 -25 20 -25 15 0 20 7 20 25 0 18 -5 25 -20 25
-15 0 -20 -7 -20 -25z"/>
<path d="M980 1165 c0 -18 5 -25 20 -25 15 0 20 7 20 25 0 18 -5 25 -20 25
-15 0 -20 -7 -20 -25z"/>
<path d="M1140 1170 c0 -19 7 -20 100 -20 93 0 100 1 100 20 0 19 -7 20 -100
20 -93 0 -100 -1 -100 -20z"/>
<path d="M980 1085 c0 -18 5 -25 20 -25 15 0 20 7 20 25 0 18 -5 25 -20 25
-15 0 -20 -7 -20 -25z"/>
<path d="M1140 1090 c0 -19 7 -20 100 -20 93 0 100 1 100 20 0 19 -7 20 -100
20 -93 0 -100 -1 -100 -20z"/>
<path d="M980 1005 c0 -18 5 -25 20 -25 15 0 20 7 20 25 0 18 -5 25 -20 25
-15 0 -20 -7 -20 -25z"/>
<path d="M1140 1010 c0 -19 7 -20 100 -20 93 0 100 1 100 20 0 19 -7 20 -100
20 -93 0 -100 -1 -100 -20z"/>
<path d="M980 925 c0 -18 5 -25 20 -25 15 0 20 7 20 25 0 18 -5 25 -20 25 -15
0 -20 -7 -20 -25z"/>
<path d="M1140 930 c0 -19 7 -20 100 -20 93 0 100 1 100 20 0 19 -7 20 -100
20 -93 0 -100 -1 -100 -20z"/>
<path d="M980 845 c0 -18 5 -25 20 -25 15 0 20 7 20 25 0 18 -5 25 -20 25 -15
0 -20 -7 -20 -25z"/>
<path d="M1140 850 c0 -18 7 -20 70 -20 63 0 70 2 70 20 0 18 -7 20 -70 20
-63 0 -70 -2 -70 -20z"/>
<path d="M980 765 c0 -18 5 -25 20 -25 15 0 20 7 20 25 0 18 -5 25 -20 25 -15
0 -20 -7 -20 -25z"/>
<path d="M1140 770 c0 -17 7 -20 40 -20 33 0 40 3 40 20 0 17 -7 20 -40 20
-33 0 -40 -3 -40 -20z"/>
<path d="M680 412 c0 -125 -4 -182 -12 -190 -12 -12 -143 -17 -172 -6 -12 5
-16 21 -16 75 0 82 8 89 104 89 l66 0 0 35 0 35 -91 0 c-50 0 -99 -5 -110 -10
-35 -19 -49 -64 -49 -154 0 -80 2 -88 29 -118 29 -33 30 -33 134 -36 81 -3
111 0 136 12 55 29 61 54 61 261 l0 185 -40 0 -40 0 0 -178z"/>
<path d="M1240 520 c0 -39 1 -40 35 -40 l35 0 0 -175 0 -175 40 0 40 0 0 215
0 215 -75 0 -75 0 0 -40z"/>
<path d="M1450 520 c0 -39 1 -40 35 -40 l35 0 0 -175 0 -175 40 0 40 0 0 215
0 215 -75 0 -75 0 0 -40z"/>
<path d="M837 443 c-4 -3 -7 -75 -7 -160 l0 -153 40 0 40 0 0 126 0 127 81 -5
c109 -6 113 -11 117 -143 l4 -105 39 0 39 0 0 93 c0 117 -12 158 -56 196 l-35
31 -128 0 c-70 0 -131 -3 -134 -7z"/>
</g>
</svg>
